<?xml version="1.0" encoding="utf-8"?>
<!-- Generator: Adobe Illustrator 24.1.2, SVG Export Plug-In . SVG Version: 6.00 Build 0)  -->
<svg version="1.1" id="Layer_1" xmlns="http://www.w3.org/2000/svg" xmlns:xlink="http://www.w3.org/1999/xlink" x="0px" y="0px"
	 viewBox="0 0 48 24" style="enable-background:new 0 0 48 24;" xml:space="preserve">
<style type="text/css">
	.st0{fill-rule:evenodd;clip-rule:evenodd;fill:#FFFFFF;}
</style>
<path class="st0" d="M39.4,22.2c0.7,0,1.5,0.1,2.1-0.1c0.5,0.2,1.1-0.1,1.6-0.1c0.3,0.1,0.4,0.3,0.7,0.4c0.9-0.7,1.5-1.7,2.3-2.5
	c-0.1-0.3-0.1-0.7-0.2-1l-0.3-0.5c-0.1,0-0.2,0-0.3,0c0-0.2-0.1-0.5-0.2-0.7c-0.2,0-0.3,0-0.5,0c-0.2,0-0.5,0.1-0.6,0
	c-0.4-0.2-0.8-0.6-1.2-1c-0.3-0.3-1-0.9-1.3-0.9c-0.4,0-0.8,0.2-1.2,0.3c-0.4,0.1-0.9,0.3-1.2,0.3c-0.8,0.1-1.6,0.1-2.5,0.1
	c-5.3,0.2-11.1,0.6-16.2,0.6c6.4-3.5,13-7.5,19.4-11.1c0.5-0.3,1.1-0.7,1.4-0.8c0.5-0.1,1.1,0.1,1.5,0.2c0.5,0.1,1,0.1,1.4,0.3
	c1.3-0.7,2.7-1.3,4-2.1c-0.3-0.1-0.5-0.3-0.7-0.6c0,0,0-0.1,0-0.1C47.5,3,47.8,2.9,48,2.8c-0.4-0.5-1.1-0.8-1.8-1.2
	c-0.1-0.1-0.2-0.1-0.1-0.2C45.4,0.9,44.8,0.4,44,0c-0.7,0.3-1.1,0.5-1.9,0.8c-0.1,0.1-0.3-0.1-0.5-0.2c-1.1,0.7-2.3,1.2-3.4,1.8
	c-0.9,0.4-1.8,0.9-2.5,1.4c-0.3,0.2-0.6,0.3-0.8,0.5l-0.7,0.6c-9,4.7-16.4,8-25.1,12.1c0.1,0.1,0.3,0.2,0.4,0.3l-3.8,1.4
	c-1.1,0.6-2.9,1.3-4.4,0.8c-0.5,0.2-0.9,0.4-1.3,0.8c0.4,0.2,0.9,0.5,1.4,0.7c-0.1,0-0.2,0.1-0.2,0.1c1.4,0.7,3.1,1.5,4.6,2.2
	c0.5,0.2,1.1,0.5,1.6,0.7c0.4,0.1,0.8,0,1.2,0c1.7-0.1,3.3-0.2,4.9-0.3c0.9-0.1,1.9-0.3,2.8-0.3c1.5,0,3,0.1,4.5,0.1
	c1.5,0,3.1-0.2,4.6-0.3c3-0.1,6.1-0.3,9.2-0.5C36.3,22.5,37.9,22.4,39.4,22.2z"/>
</svg>
