<?xml version="1.0" encoding="utf-8"?>
<!-- Generator: Adobe Illustrator 24.1.2, SVG Export Plug-In . SVG Version: 6.00 Build 0)  -->
<svg version="1.1" id="Layer_1" xmlns="http://www.w3.org/2000/svg" xmlns:xlink="http://www.w3.org/1999/xlink" x="0px" y="0px"
	 viewBox="0 0 25 27" style="enable-background:new 0 0 25 27;" xml:space="preserve">
<style type="text/css">
	.st0{fill-rule:evenodd;clip-rule:evenodd;fill:#FFFFFF;}
</style>
<path class="st0" d="M21.9,24.4l-1.7-1.5l-1.8-1.6l0.8,2.5H2.9C1.3,23.8,0,22.6,0,21V2.8C0,1.2,1.3,0,2.9,0h19.1
	C23.7,0,25,1.2,25,2.8V27L21.9,24.4z M18.9,7.7c-2.1-1.5-4-1.4-4-1.4l-0.2,0.2c2.4,0.7,3.6,1.7,3.6,1.7c-1.5-0.8-2.9-1.1-4.3-1.3
	c-1-0.1-2-0.1-2.9,0c-0.1,0-0.2,0-0.2,0c-0.5,0-1.7,0.2-3.2,0.8C7,8.1,6.7,8.2,6.7,8.2s1.2-1.1,3.8-1.8l-0.1-0.2c0,0-2,0-4,1.4
	c0,0-2.1,3.5-2.1,7.9c0,0,1.2,2,4.4,2.1c0,0,0.5-0.6,1-1.1c-1.8-0.5-2.5-1.6-2.5-1.6s0.1,0.1,0.4,0.2c0,0,0,0,0.1,0
	c0,0,0.1,0,0.1,0.1c0.4,0.2,0.7,0.3,1,0.5c0.6,0.2,1.3,0.4,2.1,0.6c1.1,0.2,2.3,0.3,3.7,0c0.7-0.1,1.4-0.3,2.1-0.6
	c0.5-0.2,1.1-0.4,1.6-0.8c0,0-0.7,1.1-2.6,1.6c0.4,0.5,0.9,1.1,0.9,1.1c3.2-0.1,4.4-2.1,4.4-2.1C20.9,11.2,18.9,7.7,18.9,7.7z
	 M15.1,14.3c-0.8,0-1.5-0.7-1.5-1.5c0-0.8,0.6-1.5,1.5-1.5c0.8,0,1.5,0.7,1.5,1.5C16.6,13.6,15.9,14.3,15.1,14.3z M9.9,14.3
	c-0.8,0-1.5-0.7-1.5-1.5c0-0.8,0.6-1.5,1.5-1.5c0.8,0,1.5,0.7,1.5,1.5C11.4,13.6,10.7,14.3,9.9,14.3z"/>
</svg>
